# xmcd
#
# Track frame offsets:
#	183
#	17358
#	36033
#	51858
#	70608
#	87408
#	102783
#	120333
#	134658
#	154158
#
# Disc length: 2295 seconds
#
# Revision: 1
# Processed by: cddbd v1.5PL3 Copyright (c) Steve Scherf et al.
# Submitted via: audiograbber 1.83.01
#
DISCID=7708f50a
DTITLE=Jake Elwood Blues Band - I need the blues
DYEAR=1900
DGENRE=Blues
TTITLE0=Jake Elwood: Good Luck
TTITLE1=Jake Elwood: I need the blues
TTITLE2=Jake Elwood: Walking on sunset
TTITLE3=Jake Elwood: Ain't got no hope
TTITLE4=Jake Elwood: Don't fool me
TTITLE5=Jake Elwood: Baby please be mine
TTITLE6=Jake Elwood: Hard job to do
TTITLE7=Jake Elwood: Rolling home
TTITLE8=Jake Elwood: Nothing stays the same
TTITLE9=Jake Elwood: Easy riding
EXTD=
EXTT0=
EXTT1=
EXTT2=
EXTT3=
EXTT4=
EXTT5=
EXTT6=
EXTT7=
EXTT8=
EXTT9=
PLAYORDER=
